<?xml version="1.0" standalone="no"?>
<!DOCTYPE svg PUBLIC "-//W3C//DTD SVG 20010904//EN"
 "http://www.w3.org/TR/2001/REC-SVG-20010904/DTD/svg10.dtd">
<svg version="1.0" xmlns="http://www.w3.org/2000/svg"
 width="174.000000pt" height="174.000000pt" viewBox="0 0 174.000000 174.000000"
 preserveAspectRatio="xMidYMid meet">
<metadata>
Created by potrace 1.14, written by Peter Selinger 2001-2017
</metadata>
<g transform="translate(0.000000,174.000000) scale(0.100000,-0.100000)"
fill="#000000" stroke="none">
<path d="M1220 1600 c-133 -56 -559 -220 -574 -220 -10 0 -69 42 -132 93 -63
51 -128 101 -144 110 -28 17 -30 17 -49 -2 -18 -18 -20 -61 -2 -61 3 0 17 -10
31 -22 14 -13 41 -35 60 -49 49 -37 96 -79 90 -80 -3 0 -61 -2 -130 -4 -69 -1
-132 -3 -141 -4 -27 -2 -84 -66 -87 -97 -7 -66 -6 -934 1 -934 4 0 6 -3 6 -7
-3 -18 2 -29 25 -55 20 -24 41 -34 79 -37 4 -1 7 -16 5 -34 -3 -46 18 -67 54
-55 20 7 28 17 28 33 0 59 -36 55 545 55 478 0 533 -2 539 -16 3 -9 4 -20 1
-25 -11 -16 15 -49 39 -49 23 0 48 20 45 36 -6 35 3 53 31 59 31 7 79 55 82
83 1 9 3 224 4 477 3 518 3 519 -66 552 -33 17 -67 19 -363 18 -264 0 -324 2
-310 13 9 6 20 12 24 12 13 0 393 152 410 164 19 13 21 24 8 49 -13 22 -52 21
-109 -3z m285 -320 c40 -3 40 0 40 -477 0 -424 -1 -459 -17 -475 -17 -17 -60
-18 -645 -18 -378 0 -634 4 -643 10 -13 8 -15 72 -16 467 -1 252 3 466 7 475
6 10 24 18 47 20 30 2 1194 1 1227 -2z"/>
<path d="M314 1181 c-4 -9 -8 -182 -9 -386 -1 -326 1 -371 15 -385 14 -14 62
-16 413 -16 367 1 397 2 409 19 10 13 13 99 12 387 -1 318 -3 371 -17 384 -13
14 -67 15 -416 14 -357 -1 -401 -2 -407 -17z m747 -70 c3 0 6 -131 6 -289 0
-159 3 -294 7 -300 4 -7 2 -12 -4 -12 -6 0 -9 -4 -5 -9 3 -5 0 -13 -6 -16 -8
-5 -599 -10 -664 -6 -8 1 -13 517 -6 621 1 13 43 15 334 14 182 -1 335 -2 338
-3z"/>
<path d="M1293 1134 c-18 -9 -39 -27 -49 -41 -19 -30 -26 -93 -12 -110 6 -7 8
-13 4 -13 -12 0 30 -42 56 -56 75 -39 166 10 174 96 6 54 -9 86 -55 117 -40
27 -73 29 -118 7z m92 -94 c10 -16 -4 -47 -24 -53 -27 -7 -51 11 -51 38 0 41
52 52 75 15z"/>
<path d="M1333 810 c-13 -5 -23 -13 -24 -17 -5 -57 -2 -77 15 -88 34 -25 66 0
66 52 0 24 -22 66 -33 62 -1 0 -12 -4 -24 -9z"/>
<path d="M1314 582 c-22 -35 2 -102 37 -102 35 0 56 102 23 114 -28 11 -49 7
-60 -12z"/>
</g>
</svg>
